<svg xmlns="http://www.w3.org/2000/svg" viewBox="0 0 125.25 58.81"><defs><style>.cls-1{fill:#39404b;}</style></defs><g id="Lag_2" data-name="Lag 2"><g id="Lag_1-2" data-name="Lag 1"><path id="Path_20" data-name="Path 20" class="cls-1" d="M108.61.28,5.64,0a4,4,0,0,0-2,2c-.4,1,0,1.66-.29,2.54S2.44,6.4,0,7.33V31.88L125.25,33V5.36a3.84,3.84,0,0,0-2.82.57v.56h-.85Z"/><path id="Path_21" data-name="Path 21" class="cls-1" d="M108.61,58.53l-103,.28a4,4,0,0,1-2-2c-.4-1,0-1.65-.29-2.54S2.44,52.4,0,51.47V26.93L125.25,25.8V53.45a3.84,3.84,0,0,1-2.82-.57v-.56h-.85Z"/></g></g></svg>